<svg class="text-iconNormal" fill="none" width="16" height="16" viewBox="0 0 24 24" xmlns="http://www.w3.org/2000/svg"><path fill-rule="evenodd" clip-rule="evenodd" d="M14.0556 4.36228C14.6924 3.84273 15.6322 3.87947 16.2259 4.4731L16.3367 4.59665C16.8213 5.19105 16.8215 6.04907 16.3367 6.64334L16.2259 6.76597L10.9924 11.9985L16.2259 17.2311L16.3367 17.3537C16.8214 17.948 16.8214 18.8061 16.3367 19.4004L16.2259 19.5239C15.6323 20.1172 14.6923 20.1541 14.0556 19.6347L13.933 19.5239L7.9301 13.521C7.08946 12.6804 7.08963 11.3167 7.9301 10.476L13.933 4.4731L14.0556 4.36228ZM14.776 19.3958C14.7864 19.3989 14.7973 19.4003 14.8078 19.4031C14.7643 19.3917 14.7209 19.3793 14.6788 19.3622L14.776 19.3958Z" fill="currentColor"></path></svg>